Sources: Video - Oz.Velikij.iUjasnij.2013.D.TS.2100MB .... Audio - MiNiSTRY

^^^ Nice video source, it just needed some filtering so i started by lowering saturation and contrast to gain a bit more detail, fixed the AR, then messed with hue, brightness, levels and sharpen, Audio is nice line, enjoy.
 
http://www.imdb.com/title/tt1623205/

A small-time magician arrives in an enchanted land and is forced to decide if he will be a good man or a great one.

General
Complete name                            : Oz the Great and Powerful 2013 TS x264 AAC-OFFLiNE.mp4
Format                                   : MPEG-4
Format profile                           : Base Media
Codec ID                                 : isom
File size                                : 1.36 GiB
Duration                                 : 2h 4mn
Overall bit rate mode                    : Variable
Overall bit rate                         : 1 571 Kbps
Encoded date                             : UTC 2013-03-11 17:35:53
Tagged date                              : UTC 2013-03-11 17:35:53

Video
ID                                       : 1
Format                                   : AVC
Format/Info                              : Advanced Video Codec
Format profile                           : High@L4.1
Format settings, CABAC                   : Yes
Format settings, ReFrames                : 3 frames
Codec ID                                 : avc1
Codec ID/Info                            : Advanced Video Coding
Duration                                 : 2h 4mn
Bit rate mode                            : Variable
Bit rate                                 : 1 437 Kbps
Maximum bit rate                         : 40.0 Mbps
Width                                    : 720 pixels
Height                                   : 258 pixels
Display aspect ratio                     : 2.791
Frame rate mode                          : Constant
Frame rate                               : 25.000 fps
Color space                              : YUV
Chroma subsampling                       : 4:2:0
Bit depth                                : 8 bits
Scan type                                : Progressive
Bits/(Pixel*Frame)                       : 0.309
Stream size                              : 1.25 GiB (91%)
Writing library                          : x264 core 130 r2273 b3065e6

Audio
ID                                       : 2
Format                                   : AAC
Format/Info                              : Advanced Audio Codec
Format profile                           : LC
Codec ID                                 : 40
Duration                                 : 2h 4mn
Bit rate mode                            : Variable
Bit rate                                 : 132 Kbps
Maximum bit rate                         : 154 Kbps
Channel(s)                               : 2 channels
Channel positions                        : Front: L R
Sampling rate                            : 48.0 KHz
Compression mode                         : Lossy
Stream size                              : 116 MiB (8%)
Language                                 : English
Encoded date                             : UTC 2013-03-11 17:30:32
Tagged date                              : UTC 2013-03-11 17:36:41


 
http://www.shotpix.com/images/55170629078284777598.png 
http://www.shotpix.com/images/12026490567715117417.png 
http://www.shotpix.com/images/06901028383180559715.png 
http://www.shotpix.com/images/55214461216446378304.png
